<svg xmlns="http://www.w3.org/2000/svg" viewBox="0 0 32 32" role="img" aria-label="Copad">
  <rect width="32" height="32" rx="7" fill="#2563eb"/>
  <path d="M9 22.5V9.5a1 1 0 0 1 1-1h7.6a1 1 0 0 1 .7.3l4.4 4.4a1 1 0 0 1 .3.7v8.6a1 1 0 0 1-1 1H10a1 1 0 0 1-1-1Z" fill="#fff" opacity=".95"/>
  <path d="M17.5 8.7v4.1a1 1 0 0 0 1 1h4.1" fill="none" stroke="#2563eb" stroke-width="1.4" stroke-linejoin="round"/>
  <path d="M12.2 16.2h7.6M12.2 19h5.2" stroke="#2563eb" stroke-width="1.6" stroke-linecap="round"/>
</svg>
